<svg width="36" height="36" xmlns="http://www.w3.org/2000/svg" xmlns:xlink="http://www.w3.org/1999/xlink"><defs><filter x="-8.3%" y="-8.3%" width="116.7%" height="116.7%" filterUnits="objectBoundingBox" id="a"><feOffset in="SourceAlpha" result="shadowOffsetOuter1"/><feGaussianBlur stdDeviation="1" in="shadowOffsetOuter1" result="shadowBlurOuter1"/><feComposite in="shadowBlurOuter1" in2="SourceAlpha" operator="out" result="shadowBlurOuter1"/><feColorMatrix values="0 0 0 0 0 0 0 0 0 0 0 0 0 0 0 0 0 0 0.204115716 0" in="shadowBlurOuter1"/></filter><path d="M18 0c9.941 0 18 8.059 18 18s-8.059 18-18 18S0 27.941 0 18 8.059 0 18 0Z" id="b"/></defs><g fill="none" fill-rule="evenodd"><g opacity=".7"><use fill="#000" filter="url(#a)" xlink:href="#b"/><path stroke="#FFF" stroke-width="2" d="M18 1C8.61 1 1 8.61 1 18s7.61 17 17 17 17-7.61 17-17S27.39 1 18 1Z" stroke-linejoin="square" fill="#222"/></g><path d="M15.13 11.152c-.621-.357-1.13-.063-1.13.654v12.388c0 .717.509 1.011 1.13.654l10.78-6.198c.621-.358.621-.942 0-1.3l-10.78-6.198Z" fill="#FFF"/></g></svg>